ffmpeg started on 2025-06-05 at 20:22:51
Report written to "D:\Convert\FFMetrics\reports\ssim_report-6.txt"
Log level: 32
Command line:
ffmpeg -hide_banner -nostdin -i "G:\\\xc0\xed\xe8\xec\xe5\\\xce\xed\xe3\xee\xe8\xed\xe3\xe8\\!_36_\xce\xf1\xe5\xed\xfc_2024\\DreamCast\\\xcd\xe5\xe3\xe0\xf2\xe8\xe2\xed\xfb\xe9 \xef\xee\xe7\xe8\xf2\xe8\xe2\xed\xfb\xe9 \xf0\xfb\xe1\xe0\xea\\[DC] NegaPosi Angler - 07_Telegram_HEVC.mkv" -i "G:\\\xc0\xed\xe8\xec\xe5\\\xce\xed\xe3\xee\xe8\xed\xe3\xe8\\!_36_\xce\xf1\xe5\xed\xfc_2024\\DreamCast\\\xcd\xe5\xe3\xe0\xf2\xe8\xe2\xed\xfb\xe9 \xef\xee\xe7\xe8\xf2\xe8\xe2\xed\xfb\xe9 \xf0\xfb\xe1\xe0\xea\\[DC] NegaPosi Angler - 07_Telegram.mp4" -lavfi "[0:v]settb=AVTB,setpts=PTS-STARTPTS,format=pix_fmts=yuv420p10,fps=24000/1001,scale=1920:1080:flags=bicubic[main];[1:v]settb=AVTB,setpts=PTS-STARTPTS,format=pix_fmts=yuv420p,fps=24000/1001,scale=1920:1080:flags=bicubic[ref];[main][ref]ssim=eof_action=endall:stats_file='D\\:/Convert/FFMetrics/logs/ssim_logfile-6.txt'" -f null -
Input #0, matroska,webm, from 'G:\Аниме\Онгоинги\!_36_Осень_2024\DreamCast\Негативный позитивный рыбак\[DC] NegaPosi Angler - 07_Telegram_HEVC.mkv':
  Metadata:
    COMPATIBLE_BRANDS: isomiso2avc1mp41
    MAJOR_BRAND     : isom
    MINOR_VERSION   : 512
    ENCODER         : Lavf61.7.100
  Duration: 00:23:46.73, start: -0.021000, bitrate: 1102 kb/s
  Stream #0:0: Video: hevc (Main 10), yuv420p10le(tv, bt709, progressive), 1920x1080 [SAR 1:1 DAR 16:9], 23.98 fps, 23.98 tbr, 1k tbn (default)
      Metadata:
        HANDLER_NAME    : VideoHandler
        VENDOR_ID       : [0][0][0][0]
        ENCODER         : Lavc61.19.100 libx265
        BPS             : 904593
        DURATION        : 00:23:46.549708333
        NUMBER_OF_FRAMES: 34203
        NUMBER_OF_BYTES : 161305818
        _STATISTICS_WRITING_APP: mkvpropedit v66.0.0 ('Josie') 64-bit
        _STATISTICS_WRITING_DATE_UTC: 2025-05-31 13:33:31
        _STATISTICS_TAGS: BPS DURATION NUMBER_OF_FRAMES NUMBER_OF_BYTES
  Stream #0:1: Audio: aac (LC), 48000 Hz, stereo, fltp (default)
      Metadata:
        HANDLER_NAME    : SoundHandler
        VENDOR_ID       : [0][0][0][0]
        ENCODER         : Lavc61.19.100 aac
        BPS             : 193628
        DURATION        : 00:23:46.730000000
        NUMBER_OF_FRAMES: 66879
        NUMBER_OF_BYTES : 34531948
        _STATISTICS_WRITING_APP: mkvpropedit v66.0.0 ('Josie') 64-bit
        _STATISTICS_WRITING_DATE_UTC: 2025-05-31 13:33:31
        _STATISTICS_TAGS: BPS DURATION NUMBER_OF_FRAMES NUMBER_OF_BYTES
Input #1, mov,mp4,m4a,3gp,3g2,mj2, from 'G:\Аниме\Онгоинги\!_36_Осень_2024\DreamCast\Негативный позитивный рыбак\[DC] NegaPosi Angler - 07_Telegram.mp4':
  Metadata:
    major_brand     : isom
    minor_version   : 512
    compatible_brands: isomiso2avc1mp41
    encoder         : Lavf61.1.100
  Duration: 00:23:46.68, start: 0.000000, bitrate: 3820 kb/s
  Stream #1:0[0x1](und): Video: h264 (High) (avc1 / 0x31637661), yuv420p(tv, bt709, progressive), 1920x1080 [SAR 1:1 DAR 16:9], 3672 kb/s, 23.98 fps, 23.98 tbr, 24k tbn (default)
      Metadata:
        handler_name    : VideoHandler
        vendor_id       : [0][0][0][0]
        encoder         : Lavc61.3.100 h264_qsv
  Stream #1:1[0x2](und): Audio: aac (HE-AACv2) (mp4a / 0x6134706D), 48000 Hz, stereo, fltp, 144 kb/s (default)
      Metadata:
        handler_name    : SoundHandler
        vendor_id       : [0][0][0][0]
Stream mapping:
  Stream #0:0 (hevc) -> settb:default
  Stream #1:0 (h264) -> settb:default
  ssim:default -> Stream #0:0 (wrapped_avframe)
  Stream #0:1 -> #0:1 (aac (native) -> pcm_s16le (native))
Output #0, null, to 'pipe:':
  Metadata:
    COMPATIBLE_BRANDS: isomiso2avc1mp41
    MAJOR_BRAND     : isom
    MINOR_VERSION   : 512
    encoder         : Lavf61.7.100
  Stream #0:0: Video: wrapped_avframe, yuv420p10le(tv, bt709, progressive), 1920x1080 [SAR 1:1 DAR 16:9], q=2-31, 200 kb/s, 23.98 fps, 23.98 tbn
      Metadata:
        encoder         : Lavc61.19.100 wrapped_avframe
  Stream #0:1: Audio: pcm_s16le, 48000 Hz, stereo, s16, 1536 kb/s (default)
      Metadata:
        HANDLER_NAME    : SoundHandler
        VENDOR_ID       : [0][0][0][0]
        _STATISTICS_TAGS: BPS DURATION NUMBER_OF_FRAMES NUMBER_OF_BYTES
        BPS             : 193628
        DURATION        : 00:23:46.730000000
        NUMBER_OF_FRAMES: 66879
        NUMBER_OF_BYTES : 34531948
        _STATISTICS_WRITING_APP: mkvpropedit v66.0.0 ('Josie') 64-bit
        _STATISTICS_WRITING_DATE_UTC: 2025-05-31 13:33:31
        encoder         : Lavc61.19.100 pcm_s16le
frame=  154 fps=0.0 q=-0.0 size=N/A time=00:00:06.42 bitrate=N/A speed=12.5x    frame=  368 fps=355 q=-0.0 size=N/A time=00:00:15.34 bitrate=N/A speed=14.8x    frame=  604 fps=390 q=-0.0 size=N/A time=00:00:25.19 bitrate=N/A speed=16.3x    frame=  823 fps=400 q=-0.0 size=N/A time=00:00:34.32 bitrate=N/A speed=16.7x    frame= 1063 fps=412 q=-0.0 size=N/A time=00:00:44.33 bitrate=N/A speed=17.2x    frame= 1306 fps=423 q=-0.0 size=N/A time=00:00:54.47 bitrate=N/A speed=17.6x    frame= 1562 fps=432 q=-0.0 size=N/A time=00:01:05.14 bitrate=N/A speed=  18x    frame= 1794 fps=436 q=-0.0 size=N/A time=00:01:14.82 bitrate=N/A speed=18.2x    frame= 2050 fps=442 q=-0.0 size=N/A time=00:01:25.50 bitrate=N/A speed=18.4x    frame= 2295 fps=446 q=-0.0 size=N/A time=00:01:35.72 bitrate=N/A speed=18.6x    frame= 2526 fps=445 q=-0.0 size=N/A time=00:01:45.35 bitrate=N/A speed=18.6x    frame= 2740 fps=443 q=-0.0 size=N/A time=00:01:54.28 bitrate=N/A speed=18.5x    frame= 2896 fps=432 q=-0.0 size=N/A time=00:02:00.78 bitrate=N/A speed=  18x    frame= 3070 fps=425 q=-0.0 size=N/A time=00:02:08.04 bitrate=N/A speed=17.7x    frame= 3250 fps=421 q=-0.0 size=N/A time=00:02:15.55 bitrate=N/A speed=17.5x    frame= 3468 fps=420 q=-0.0 size=N/A time=00:02:24.64 bitrate=N/A speed=17.5x    frame= 3633 fps=415 q=-0.0 size=N/A time=00:02:31.52 bitrate=N/A speed=17.3x    frame= 3831 fps=412 q=-0.0 size=N/A time=00:02:39.78 bitrate=N/A speed=17.2x    frame= 4029 fps=411 q=-0.0 size=N/A time=00:02:48.04 bitrate=N/A speed=17.2x    frame= 4220 fps=409 q=-0.0 size=N/A time=00:02:56.00 bitrate=N/A speed=17.1x    frame= 4436 fps=409 q=-0.0 size=N/A time=00:03:05.01 bitrate=N/A speed=17.1x    frame= 4631 fps=408 q=-0.0 size=N/A time=00:03:13.15 bitrate=N/A speed=  17x    frame= 4858 fps=409 q=-0.0 size=N/A time=00:03:22.61 bitrate=N/A speed=17.1x    frame= 5130 fps=415 q=-0.0 size=N/A time=00:03:33.96 bitrate=N/A speed=17.3x    frame= 5378 fps=417 q=-0.0 size=N/A time=00:03:44.30 bitrate=N/A speed=17.4x    frame= 5633 fps=420 q=-0.0 size=N/A time=00:03:54.94 bitrate=N/A speed=17.5x    frame= 5842 fps=420 q=-0.0 size=N/A time=00:04:03.66 bitrate=N/A speed=17.5x    frame= 6053 fps=419 q=-0.0 size=N/A time=00:04:12.46 bitrate=N/A speed=17.5x    frame= 6318 fps=422 q=-0.0 size=N/A time=00:04:23.51 bitrate=N/A speed=17.6x    frame= 6576 fps=425 q=-0.0 size=N/A time=00:04:34.27 bitrate=N/A speed=17.7x    frame= 6836 fps=428 q=-0.0 size=N/A time=00:04:45.11 bitrate=N/A speed=17.8x    frame= 7072 fps=428 q=-0.0 size=N/A time=00:04:54.96 bitrate=N/A speed=17.9x    frame= 7247 fps=426 q=-0.0 size=N/A time=00:05:02.26 bitrate=N/A speed=17.8x    frame= 7494 fps=427 q=-0.0 size=N/A time=00:05:12.56 bitrate=N/A speed=17.8x    frame= 7731 fps=429 q=-0.0 size=N/A time=00:05:22.44 bitrate=N/A speed=17.9x    frame= 7959 fps=429 q=-0.0 size=N/A time=00:05:31.95 bitrate=N/A speed=17.9x    frame= 8169 fps=428 q=-0.0 size=N/A time=00:05:40.71 bitrate=N/A speed=17.9x    frame= 8416 fps=430 q=-0.0 size=N/A time=00:05:51.01 bitrate=N/A speed=17.9x    frame= 8659 fps=430 q=-0.0 size=N/A time=00:06:01.15 bitrate=N/A speed=  18x    frame= 8906 fps=432 q=-0.0 size=N/A time=00:06:11.45 bitrate=N/A speed=  18x    frame= 9149 fps=433 q=-0.0 size=N/A time=00:06:21.58 bitrate=N/A speed=18.1x    frame= 9400 fps=434 q=-0.0 size=N/A time=00:06:32.05 bitrate=N/A speed=18.1x    frame= 9632 fps=435 q=-0.0 size=N/A time=00:06:41.73 bitrate=N/A speed=18.1x    frame= 9863 fps=435 q=-0.0 size=N/A time=00:06:51.36 bitrate=N/A speed=18.1x    frame=10085 fps=435 q=-0.0 size=N/A time=00:07:00.62 bitrate=N/A speed=18.1x    frame=10319 fps=435 q=-0.0 size=N/A time=00:07:10.38 bitrate=N/A speed=18.2x    frame=10531 fps=434 q=-0.0 size=N/A time=00:07:19.23 bitrate=N/A speed=18.1x    frame=10735 fps=434 q=-0.0 size=N/A time=00:07:27.73 bitrate=N/A speed=18.1x    frame=10985 fps=435 q=-0.0 size=N/A time=00:07:38.16 bitrate=N/A speed=18.1x    frame=11195 fps=434 q=-0.0 size=N/A time=00:07:46.92 bitrate=N/A speed=18.1x    frame=11434 fps=435 q=-0.0 size=N/A time=00:07:56.89 bitrate=N/A speed=18.1x    frame=11667 fps=435 q=-0.0 size=N/A time=00:08:06.61 bitrate=N/A speed=18.2x    frame=11923 fps=436 q=-0.0 size=N/A time=00:08:17.28 bitrate=N/A speed=18.2x    frame=12181 fps=438 q=-0.0 size=N/A time=00:08:28.04 bitrate=N/A speed=18.2x    frame=12422 fps=438 q=-0.0 size=N/A time=00:08:38.10 bitrate=N/A speed=18.3x    frame=12681 fps=439 q=-0.0 size=N/A time=00:08:48.90 bitrate=N/A speed=18.3x    frame=12917 fps=439 q=-0.0 size=N/A time=00:08:58.74 bitrate=N/A speed=18.3x    frame=13155 fps=440 q=-0.0 size=N/A time=00:09:08.67 bitrate=N/A speed=18.4x    frame=13403 fps=441 q=-0.0 size=N/A time=00:09:19.01 bitrate=N/A speed=18.4x    frame=13644 fps=441 q=-0.0 size=N/A time=00:09:29.06 bitrate=N/A speed=18.4x    frame=13903 fps=442 q=-0.0 size=N/A time=00:09:39.87 bitrate=N/A speed=18.4x    frame=14158 fps=443 q=-0.0 size=N/A time=00:09:50.50 bitrate=N/A speed=18.5x    frame=14390 fps=443 q=-0.0 size=N/A time=00:10:00.22 bitrate=N/A speed=18.5x    frame=14621 fps=443 q=-0.0 size=N/A time=00:10:09.81 bitrate=N/A speed=18.5x    frame=14857 fps=443 q=-0.0 size=N/A time=00:10:19.66 bitrate=N/A speed=18.5x    frame=15083 fps=443 q=-0.0 size=N/A time=00:10:29.08 bitrate=N/A speed=18.5x    frame=15323 fps=444 q=-0.0 size=N/A time=00:10:39.09 bitrate=N/A speed=18.5x    frame=15570 fps=444 q=-0.0 size=N/A time=00:10:49.39 bitrate=N/A speed=18.5x    frame=15829 fps=445 q=-0.0 size=N/A time=00:11:00.24 bitrate=N/A speed=18.6x    frame=16062 fps=445 q=-0.0 size=N/A time=00:11:09.91 bitrate=N/A speed=18.6x    frame=16297 fps=445 q=-0.0 size=N/A time=00:11:19.72 bitrate=N/A speed=18.6x    frame=16530 fps=445 q=-0.0 size=N/A time=00:11:29.43 bitrate=N/A speed=18.6x    frame=16692 fps=443 q=-0.0 size=N/A time=00:11:36.19 bitrate=N/A speed=18.5x    frame=16909 fps=443 q=-0.0 size=N/A time=00:11:45.24 bitrate=N/A speed=18.5x    frame=17151 fps=443 q=-0.0 size=N/A time=00:11:55.33 bitrate=N/A speed=18.5x    frame=17396 fps=444 q=-0.0 size=N/A time=00:12:05.55 bitrate=N/A speed=18.5x    frame=17610 fps=444 q=-0.0 size=N/A time=00:12:14.48 bitrate=N/A speed=18.5x    frame=17839 fps=444 q=-0.0 size=N/A time=00:12:24.03 bitrate=N/A speed=18.5x    frame=18071 fps=444 q=-0.0 size=N/A time=00:12:33.71 bitrate=N/A speed=18.5x    frame=18336 fps=444 q=-0.0 size=N/A time=00:12:44.76 bitrate=N/A speed=18.5x    frame=18562 fps=444 q=-0.0 size=N/A time=00:12:54.19 bitrate=N/A speed=18.5x    frame=18801 fps=445 q=-0.0 size=N/A time=00:13:04.15 bitrate=N/A speed=18.5x    frame=19061 fps=445 q=-0.0 size=N/A time=00:13:15.00 bitrate=N/A speed=18.6x    frame=19295 fps=446 q=-0.0 size=N/A time=00:13:24.76 bitrate=N/A speed=18.6x    frame=19541 fps=446 q=-0.0 size=N/A time=00:13:35.02 bitrate=N/A speed=18.6x    frame=19790 fps=446 q=-0.0 size=N/A time=00:13:45.40 bitrate=N/A speed=18.6x    frame=20016 fps=446 q=-0.0 size=N/A time=00:13:54.83 bitrate=N/A speed=18.6x    frame=20258 fps=446 q=-0.0 size=N/A time=00:14:04.92 bitrate=N/A speed=18.6x    frame=20504 fps=447 q=-0.0 size=N/A time=00:14:15.18 bitrate=N/A speed=18.6x    frame=20733 fps=447 q=-0.0 size=N/A time=00:14:24.73 bitrate=N/A speed=18.6x    frame=20967 fps=447 q=-0.0 size=N/A time=00:14:34.49 bitrate=N/A speed=18.6x    frame=21204 fps=447 q=-0.0 size=N/A time=00:14:44.38 bitrate=N/A speed=18.6x    frame=21445 fps=447 q=-0.0 size=N/A time=00:14:54.43 bitrate=N/A speed=18.7x    frame=21688 fps=447 q=-0.0 size=N/A time=00:15:04.57 bitrate=N/A speed=18.7x    frame=21934 fps=448 q=-0.0 size=N/A time=00:15:14.83 bitrate=N/A speed=18.7x    frame=22196 fps=448 q=-0.0 size=N/A time=00:15:25.75 bitrate=N/A speed=18.7x    frame=22442 fps=449 q=-0.0 size=N/A time=00:15:36.01 bitrate=N/A speed=18.7x    frame=22683 fps=449 q=-0.0 size=N/A time=00:15:46.07 bitrate=N/A speed=18.7x    frame=22925 fps=449 q=-0.0 size=N/A time=00:15:56.16 bitrate=N/A speed=18.7x    frame=23154 fps=449 q=-0.0 size=N/A time=00:16:05.71 bitrate=N/A speed=18.7x    frame=23401 fps=449 q=-0.0 size=N/A time=00:16:16.01 bitrate=N/A speed=18.7x    frame=23656 fps=450 q=-0.0 size=N/A time=00:16:26.65 bitrate=N/A speed=18.8x    frame=23884 fps=450 q=-0.0 size=N/A time=00:16:36.16 bitrate=N/A speed=18.8x    frame=24125 fps=450 q=-0.0 size=N/A time=00:16:46.21 bitrate=N/A speed=18.8x    frame=24374 fps=450 q=-0.0 size=N/A time=00:16:56.59 bitrate=N/A speed=18.8x    frame=24600 fps=450 q=-0.0 size=N/A time=00:17:06.02 bitrate=N/A speed=18.8x    frame=24830 fps=450 q=-0.0 size=N/A time=00:17:15.61 bitrate=N/A speed=18.8x    frame=25050 fps=450 q=-0.0 size=N/A time=00:17:24.79 bitrate=N/A speed=18.8x    frame=25284 fps=450 q=-0.0 size=N/A time=00:17:34.55 bitrate=N/A speed=18.8x    frame=25528 fps=450 q=-0.0 size=N/A time=00:17:44.73 bitrate=N/A speed=18.8x    frame=25767 fps=450 q=-0.0 size=N/A time=00:17:54.69 bitrate=N/A speed=18.8x    frame=26017 fps=451 q=-0.0 size=N/A time=00:18:05.12 bitrate=N/A speed=18.8x    frame=26249 fps=451 q=-0.0 size=N/A time=00:18:14.80 bitrate=N/A speed=18.8x    frame=26480 fps=450 q=-0.0 size=N/A time=00:18:24.43 bitrate=N/A speed=18.8x    frame=26727 fps=451 q=-0.0 size=N/A time=00:18:34.73 bitrate=N/A speed=18.8x    frame=26978 fps=451 q=-0.0 size=N/A time=00:18:45.20 bitrate=N/A speed=18.8x    frame=27217 fps=451 q=-0.0 size=N/A time=00:18:55.17 bitrate=N/A speed=18.8x    frame=27439 fps=451 q=-0.0 size=N/A time=00:19:04.43 bitrate=N/A speed=18.8x    frame=27686 fps=451 q=-0.0 size=N/A time=00:19:14.73 bitrate=N/A speed=18.8x    frame=27918 fps=451 q=-0.0 size=N/A time=00:19:24.41 bitrate=N/A speed=18.8x    frame=28157 fps=451 q=-0.0 size=N/A time=00:19:34.38 bitrate=N/A speed=18.8x    frame=28354 fps=451 q=-0.0 size=N/A time=00:19:42.59 bitrate=N/A speed=18.8x    frame=28579 fps=451 q=-0.0 size=N/A time=00:19:51.98 bitrate=N/A speed=18.8x    frame=28787 fps=450 q=-0.0 size=N/A time=00:20:00.65 bitrate=N/A speed=18.8x    frame=28990 fps=450 q=-0.0 size=N/A time=00:20:09.12 bitrate=N/A speed=18.8x    frame=29244 fps=450 q=-0.0 size=N/A time=00:20:19.71 bitrate=N/A speed=18.8x    frame=29489 fps=450 q=-0.0 size=N/A time=00:20:29.93 bitrate=N/A speed=18.8x    frame=29715 fps=450 q=-0.0 size=N/A time=00:20:39.36 bitrate=N/A speed=18.8x    frame=29925 fps=450 q=-0.0 size=N/A time=00:20:48.12 bitrate=N/A speed=18.8x    frame=30179 fps=450 q=-0.0 size=N/A time=00:20:58.71 bitrate=N/A speed=18.8x    frame=30444 fps=451 q=-0.0 size=N/A time=00:21:09.76 bitrate=N/A speed=18.8x    frame=30680 fps=451 q=-0.0 size=N/A time=00:21:19.61 bitrate=N/A speed=18.8x    frame=30918 fps=451 q=-0.0 size=N/A time=00:21:29.53 bitrate=N/A speed=18.8x    frame=31137 fps=451 q=-0.0 size=N/A time=00:21:38.67 bitrate=N/A speed=18.8x    frame=31365 fps=450 q=-0.0 size=N/A time=00:21:48.18 bitrate=N/A speed=18.8x    frame=31611 fps=451 q=-0.0 size=N/A time=00:21:58.44 bitrate=N/A speed=18.8x    frame=31875 fps=451 q=-0.0 size=N/A time=00:22:09.45 bitrate=N/A speed=18.8x    frame=32090 fps=451 q=-0.0 size=N/A time=00:22:18.42 bitrate=N/A speed=18.8x    frame=32339 fps=451 q=-0.0 size=N/A time=00:22:28.80 bitrate=N/A speed=18.8x    frame=32602 fps=451 q=-0.0 size=N/A time=00:22:39.77 bitrate=N/A speed=18.8x    frame=32855 fps=452 q=-0.0 size=N/A time=00:22:50.32 bitrate=N/A speed=18.8x    frame=33111 fps=452 q=-0.0 size=N/A time=00:23:01.00 bitrate=N/A speed=18.9x    frame=33371 fps=452 q=-0.0 size=N/A time=00:23:11.84 bitrate=N/A speed=18.9x    frame=33628 fps=453 q=-0.0 size=N/A time=00:23:22.56 bitrate=N/A speed=18.9x    frame=33874 fps=453 q=-0.0 size=N/A time=00:23:32.82 bitrate=N/A speed=18.9x    frame=34090 fps=453 q=-0.0 size=N/A time=00:23:41.83 bitrate=N/A speed=18.9x    [Parsed_ssim_10 @ 00000215c6fb2c80] SSIM Y:0.994060 (22.262058) U:0.993686 (21.996793) V:0.993519 (21.883605) All:0.993907 (22.151971)
[out#0/null @ 00000215c6f64c00] video:14697KiB audio:267516KiB subtitle:0KiB other streams:0KiB global headers:0KiB muxing overhead: unknown
frame=34203 fps=453 q=-0.0 Lsize=N/A time=00:23:46.55 bitrate=N/A speed=18.9x    
